PathFileType	4	(X/Y/Z)	D:\MotionData\Pi-Spi Study\20230118_AMCsubject1\Trimmed_right_horiz_add01_rotated.trc
DataRate	CameraRate	NumFrames	NumMarkers	Units	OrigDataRate	OrigDataStartFrame	OrigNumFrames
200.00	200.00	       9	35	mm	200.00	126	       200
Frame#	Time	C7			Sternum			r_AMC1			r_AMC2			r_AMC3			l_AMC1			l_AMC2			l_AMC3			PX			T8			r_humerous			r_elbow_medial			r_elbow_lateral			r_forearm			r_wrist_radius			r_wrist_ulna			r_MCP_1			r_MCP_3			l_humerous			l_elbow_medial			l_elbow_lateral			l_forearm			l_wrist_radius			l_wrist_ulna			l_MCP_1			l_MCP_3			r_ASIS			r_PSIS			l_ASIS			l_PSIS			r_IC			l_IC			TS			AI			AA			
		X1	Y1	Z1	X2	Y2	Z2	X3	Y3	Z3	X4	Y4	Z4	X5	Y5	Z5	X6	Y6	Z6	X7	Y7	Z7	X8	Y8	Z8	X9	Y9	Z9	X10	Y10	Z10	X11	Y11	Z11	X12	Y12	Z12	X13	Y13	Z13	X14	Y14	Z14	X15	Y15	Z15	X16	Y16	Z16	X17	Y17	Z17	X18	Y18	Z18	X19	Y19	Z19	X20	Y20	Z20	X21	Y21	Z21	X22	Y22	Z22	X23	Y23	Z23	X24	Y24	Z24	X25	Y25	Z25	X26	Y26	Z26	X27	Y27	Z27	X28	Y28	Z28	X29	Y29	Z29	X30	Y30	Z30	X31	Y31	Z31	X32	Y32	Z32	X33	Y33	Z33	X34	Y34	Z34	X35	Y35	Z35	

126	0.625	163.9008	1373.9459	-219.4665	300.8369	1315.2745	-213.81	181.2426	1357.2245	-60.6244	219.0487	1388.5207	-56.8271	213.3021	1402.5961	-98.6079	185.505	1318.8306	-381.5631	224.8744	1315.5889	-414.8446	244.4578	1354.7022	-384.9943	368.0058	1125.8722	-206.161	133.271	1187.0913	-221.3139	371.0882	1362.076	-148.8162	491.1022	1276.437	-187.2249	508.066	1329.627	-160.0895	639.2944	1352.6642	-268.5045	688.144	1325.2748	-318.8812	678.8121	1375.2595	-327.2986	749.6482	1339.71	-378.5261	745.3383	1387.6526	-378.7896	318.382	1127.4908	-403.7303	249.7358	993.0659	-390.171	270.9355	991.8228	-441.092	335.0382	847.53	-460.1694	382.2255	779.4039	-438.5381	340.3717	770.5807	-454.7538	400.1799	702.3743	-448.4638	352.9211	696.2523	-460.2906	338.1636	909.647	-70.0714	157.2993	927.9769	-166.1654	359.2198	891.7626	-327.4831	166.0332	920.6868	-268.438	252.8341	970.4514	-46.8388	272.3809	938.932	-372.7573	92.5923	1297.5584	-104.0722	122.1441	1209.3698	-62.112	170.1067	1363.5869	-1.2039
127	0.63	163.9175	1373.9626	-219.4973	300.8324	1315.2168	-213.8503	181.258	1357.2367	-60.6394	219.1212	1388.4486	-56.8797	213.3092	1402.6083	-98.6376	185.5235	1318.8262	-381.5792	224.8966	1315.5909	-414.8755	244.4717	1354.7185	-385.0081	367.9911	1125.8713	-206.1616	133.275	1187.0978	-221.3208	371.1021	1362.0393	-148.8253	491.0713	1276.4315	-187.1942	508.1171	1329.6097	-160.1068	639.3214	1352.5508	-268.515	688.1766	1325.1473	-318.882	678.8504	1375.1846	-327.3181	749.6986	1339.5789	-378.5562	745.3876	1387.5238	-378.8103	318.396	1127.4534	-403.7327	249.7398	993.0479	-390.1639	270.9365	991.8188	-441.0975	335.0316	847.5283	-460.17	382.2495	779.3966	-438.5173	340.3852	770.5672	-454.7237	400.2017	702.3575	-448.4317	352.9216	696.2507	-460.2638	338.1549	909.6677	-70.0812	157.2996	927.9623	-166.1786	359.2126	891.7456	-327.4828	166.049	920.6991	-268.4402	252.8533	970.4481	-46.8372	272.3899	938.9448	-372.84	92.5989	1297.5596	-104.1033	122.1521	1209.3574	-62.1344	170.0111	1363.7117	-1.2412
128	0.635	163.937	1373.9528	-219.5239	300.8277	1315.228	-213.8574	181.2692	1357.238	-60.6599	219.1281	1388.4841	-56.8826	213.3111	1402.5919	-98.627	185.5548	1318.8351	-381.5956	224.9175	1315.5859	-414.8828	244.5173	1354.7106	-385.0313	368.0055	1125.806	-206.1959	133.2803	1187.0879	-221.3474	371.1146	1361.9764	-148.8752	491.0433	1276.3772	-187.2177	508.1063	1329.5538	-160.126	639.3245	1352.5648	-268.5165	688.1743	1325.1576	-318.8989	678.8347	1375.1642	-327.3253	749.7145	1339.5298	-378.5483	745.4476	1387.4311	-378.8259	318.4476	1127.3444	-403.7176	249.7277	993.0328	-390.1604	271.0027	991.8632	-441.1022	334.9985	847.5375	-460.1357	382.2518	779.3791	-438.4703	340.4311	770.4456	-454.6476	400.2199	702.3644	-448.3977	352.9497	696.2379	-460.2182	338.2445	909.6534	-70.1253	157.3005	927.9549	-166.1731	359.2023	891.7327	-327.498	166.0489	920.7007	-268.4546	252.8858	970.4296	-46.8576	272.3648	938.9305	-372.8766	92.5855	1297.5475	-104.1118	122.178	1209.3627	-62.1498	170.0131	1363.7004	-1.2404
129	0.64	163.9279	1373.942	-219.5501	300.8147	1315.1984	-213.8728	181.2667	1357.2436	-60.672	219.1616	1388.3926	-56.8945	213.29	1402.5981	-98.6307	185.5663	1318.8256	-381.6171	224.9397	1315.5908	-414.8945	244.5401	1354.699	-385.04	367.9708	1125.7844	-206.1549	133.2765	1187.0935	-221.3732	371.1245	1361.7022	-148.9895	491.0663	1276.37	-187.2428	508.0868	1329.5354	-160.1482	639.3821	1352.4224	-268.5277	688.2198	1324.9595	-318.8714	678.8974	1375.0374	-327.3247	749.7753	1339.3894	-378.5436	745.4718	1387.3306	-378.8261	318.424	1127.3603	-403.6855	249.732	993.0369	-390.1612	270.9871	991.7821	-441.0869	334.7253	847.3574	-460.0192	382.2559	779.356	-438.439	340.4302	770.5693	-454.7152	400.215	702.3148	-448.3742	352.9516	696.2103	-460.2068	338.2096	909.6654	-70.1392	157.3147	927.9562	-166.1884	359.2383	891.7482	-327.5218	166.0565	920.6992	-268.4531	252.9184	970.4003	-46.8513	272.3879	938.9172	-372.8091	92.5743	1297.5371	-104.1221	122.189	1209.3713	-62.1221	170.0563	1363.6897	-1.2394
130	0.645	163.937	1373.9403	-219.5647	300.8004	1315.1633	-213.8941	181.2802	1357.2436	-60.6792	219.1447	1388.4344	-56.914	213.32	1402.5819	-98.6213	185.5807	1318.8195	-381.632	224.973	1315.5767	-414.9277	244.5555	1354.6722	-385.0477	367.9629	1125.7631	-206.1473	133.2901	1187.0967	-221.3864	371.0999	1361.9894	-148.8903	491.1158	1276.2812	-187.275	508.0826	1329.4949	-160.1639	639.383	1352.3948	-268.5538	688.2027	1324.9419	-318.8636	678.9179	1374.9907	-327.3369	749.8084	1339.2975	-378.5399	745.4943	1387.2544	-378.8391	318.4619	1127.2964	-403.7292	249.7518	993.0261	-390.1533	271.0143	991.8241	-441.093	334.7309	847.3605	-459.9419	382.2635	779.3477	-438.4201	340.425	770.5752	-454.731	400.2208	702.3049	-448.3317	352.9712	696.1788	-460.1558	338.2252	909.6383	-70.1639	157.3364	927.9729	-166.1978	359.2065	891.7282	-327.5519	166.0741	920.6846	-268.4593	252.9892	970.3805	-46.8789	272.4531	938.8592	-372.7956	92.5933	1297.5325	-104.1389	122.2401	1209.328	-62.2567	170.0738	1363.6658	-1.2616
131	0.65	163.9567	1373.9558	-219.5866	300.833	1315.1687	-213.9092	181.2767	1357.2428	-60.6962	219.1668	1388.4365	-57.0292	213.3622	1402.5582	-98.6548	185.613	1318.8145	-381.6563	225.0033	1315.5709	-414.9427	244.5932	1354.6649	-385.0592	367.9735	1125.7799	-206.1713	133.271	1187.1152	-221.4146	371.17	1361.6141	-149.0465	491.0784	1276.2784	-187.2567	508.095	1329.4873	-160.1871	639.39	1352.3291	-268.5873	688.2372	1324.9402	-318.8766	678.8998	1374.9653	-327.3528	749.8327	1339.2635	-378.5191	745.5607	1387.116	-378.8452	318.4913	1127.23	-403.7308	249.7418	993.0273	-390.1511	270.9746	991.7397	-441.0769	335.1038	847.4555	-460.0725	382.2589	779.3223	-438.3887	340.4481	770.4424	-454.647	400.2144	702.2704	-448.2981	352.9567	696.1619	-460.1437	338.2544	909.6425	-70.1787	157.3289	927.9806	-166.2042	359.1835	891.7186	-327.5408	166.0684	920.6946	-268.4722	252.9877	970.3826	-46.8744	272.5267	938.8007	-372.8293	92.5941	1297.5277	-104.1072	122.2325	1209.3015	-62.2329	170.0925	1363.6656	-1.2528
132	0.655	163.9662	1373.9545	-219.6303	300.8204	1315.1263	-213.9179	181.2783	1357.2593	-60.7122	219.1932	1388.42	-56.7316	213.3602	1402.5612	-98.7062	185.6276	1318.8103	-381.6913	225.0364	1315.5501	-414.9704	244.6253	1354.6307	-385.0688	367.9283	1125.7372	-206.1667	133.3003	1187.1084	-221.4172	371.1539	1361.939	-148.9777	491.0819	1276.3258	-187.2872	508.1122	1329.4768	-160.2332	639.4098	1352.297	-268.6021	688.2688	1324.814	-318.8657	678.9569	1374.8781	-327.3682	749.8743	1339.1696	-378.5211	745.5755	1387.0582	-378.8596	318.504	1127.2258	-403.7002	249.7419	993.0109	-390.1494	270.9901	991.7412	-441.0695	335.0907	847.4517	-460.0732	382.2413	779.2993	-438.3781	340.4282	770.4733	-454.6536	400.2195	702.266	-448.2696	352.9396	696.1435	-460.0933	338.2841	909.6415	-70.2081	157.3373	927.9616	-166.2144	359.1837	891.6975	-327.5686	166.0822	920.6935	-268.4837	253.0206	970.3797	-46.9261	272.4821	938.8311	-372.8472	92.585	1297.5261	-104.1361	122.257	1209.3001	-62.2758	170.1023	1363.6138	-1.2399
133	0.66	163.9514	1373.9503	-219.65	300.7946	1315.1186	-213.9239	181.306	1357.2642	-60.7319	219.1422	1388.49	-57.0236	213.3768	1402.5796	-98.7184	185.6678	1318.799	-381.7254	225.0764	1315.5371	-415.0121	244.6638	1354.6448	-385.1002	367.963	1125.7827	-206.1617	133.2851	1187.1167	-221.4494	371.1608	1361.894	-149.0036	491.1598	1276.2368	-187.3006	508.0916	1329.474	-160.2382	639.4045	1352.2229	-268.6086	688.2427	1324.8312	-318.8197	678.9654	1374.8672	-327.3882	749.9131	1339.0502	-378.509	745.6118	1386.9491	-378.8807	318.5317	1127.1755	-403.7323	249.7546	993.002	-390.1521	271.0058	991.7155	-441.0832	335.1216	847.4039	-460.0825	382.2529	779.2727	-438.3468	340.4774	770.3687	-454.6057	400.236	702.2387	-448.2353	352.9678	696.1304	-460.0766	338.2957	909.641	-70.2244	157.35	927.9514	-166.2435	360.0661	892.2767	-328.1375	166.0872	920.7185	-268.4812	253.0695	970.3389	-46.9389	272.543	938.7888	-372.9161	92.6064	1297.5139	-104.1246	122.3055	1209.3175	-62.2656	170.1371	1363.5664	-1.2726
134	0.665	163.9759	1373.9497	-219.6712	300.3104	1314.8326	-213.8049	181.2886	1357.2545	-60.7341	219.2192	1388.41	-56.8387	213.4	1402.5474	-98.736	185.6818	1318.7998	-381.741	225.0942	1315.5315	-415.0108	244.6752	1354.6392	-385.1067	367.9276	1125.7042	-206.1716	133.2822	1187.1161	-221.463	371.1454	1361.9179	-148.9967	491.0976	1276.2632	-187.3073	508.0871	1329.4802	-160.2735	639.3961	1352.2413	-268.6012	688.3056	1324.704	-318.8589	678.989	1374.7874	-327.4034	749.9188	1338.99	-378.4737	745.6507	1386.8721	-378.8899	318.5292	1127.1505	-403.6714	249.7367	992.9942	-390.1593	271.011	991.7072	-441.0859	334.7674	847.2521	-459.8729	382.2646	779.2556	-438.3202	340.438	770.4505	-454.6365	400.2006	702.1915	-448.2176	352.9695	696.0842	-460.0614	338.3125	909.6522	-70.2463	157.3841	927.9813	-166.2273	360.1063	892.2783	-328.1716	166.1122	920.7096	-268.495	253.0653	970.3669	-46.9453	272.442	938.8062	-372.9133	92.6129	1297.47	-104.1059	122.3078	1209.2656	-62.2612	170.1375	1363.5698	-1.2761
